<!DOCTYPE svg PUBLIC "-//W3C//DTD SVG 1.0//EN" "http://www.w3.org/TR/2001/REC-SVG-20010904/DTD/svg10.dtd">
<svg xmlns="http://www.w3.org/2000/svg" xmlns:xlink="http://www.w3.org/1999/xlink" width="1000" height="1000" viewBox="-500 -500 1000 1000" version="1.1">
	<g class="symbol" id="neptune_template">
		<!--<circle cx="0" cy="0" r="20" fill="white"/>-->
		<g id="neptune_path" transform="translate(-20, -20)">
			<path transform="scale(0.18, 0.18) translate(-1.5, -165)" d="M217.9688 233.8594 L207.4219 245.1094 L194.625 233.0156 Q193.2188 268.5938 174.0938 289.3438 Q154.9688 310.0781 120.9375 312.75 L120.9375 336.0938 L140.7656 336.0938 L140.7656 352.4062 L120.9375 352.4062 L120.9375 385.875 L103.6406 385.875 L103.6406 352.4062 L83.8125 352.4062 L83.8125 336.0938 L103.6406 336.0938 L103.6406 312.75 Q69.75 310.2188 50.6875 289.5469 Q31.6406 268.875 29.9531 233.0156 Q29.9531 233.1562 23.9062 238.9219 L17.2969 245.1094 L6.6094 233.8594 L37.6875 203.9062 L70.0312 233.8594 L59.9062 245.1094 L47.25 233.2969 Q50.2031 291.6562 103.6406 296.2969 L103.6406 207.5625 L90.4219 219.9375 L80.2969 208.6875 L112.6406 178.7344 L143.7188 208.6875 L133.0312 219.9375 L120.9375 208.4062 L120.9375 296.2969 Q174.5156 291.7969 177.1875 233.2969 L164.6719 245.1094 L154.6875 233.8594 L186.8906 203.9062 L217.9688 233.8594 Z" stroke="none"/>
		</g>
		<!--<circle cx="0" cy="0" r="2" fill="red"/>-->
	</g>
</svg>
