<?xml version="1.0" encoding="utf-8"?>
<!-- Generator: Adobe Illustrator 26.0.1, SVG Export Plug-In . SVG Version: 6.00 Build 0)  -->
<svg version="1.1" id="图层_1" xmlns="http://www.w3.org/2000/svg" xmlns:xlink="http://www.w3.org/1999/xlink" x="0px" y="0px"
	 viewBox="0 0 116 35.9" style="enable-background:new 0 0 116 35.9;" xml:space="preserve">
<style type="text/css">
	.st0{fill:#F08300;}
	.st1{fill:url(#SVGID_1_);}
	.st2{fill:url(#SVGID_00000065763861703730787090000016079877911706325906_);}
	.st3{fill:url(#SVGID_00000007394340228079591860000007854760755980370608_);}
	.st4{fill:url(#SVGID_00000040561717706566367910000004964329202719387547_);}
	.st5{fill:#1C6EEE;}
	.st6{fill:#DA7C18;}
</style>
<g>
	<g>
		<path class="st0" d="M39.7,12.9H36c-0.5,0-1.3-0.1-1.5-0.6c0-0.1-0.1-0.2,0-0.3c0,0,0-0.1-0.1-0.1c0,0-0.5,0-0.9,0
			c-0.2,0-0.3,0-0.6,0.1c-2.5,0.3-5.6,1.2-9.1,3.8c-3,2.1,5.4-1.7,5.4-1.7s1.4-0.6,3.5-0.9c0.1,0,0.2,0,0.3,0h6.9
			c0.1,0,0.2-0.1,0.2-0.2C39.9,13,39.8,12.9,39.7,12.9z"/>
		
			<linearGradient id="SVGID_1_" gradientUnits="userSpaceOnUse" x1="-3977.6968" y1="-388.9367" x2="-3971.9519" y2="-395.648" gradientTransform="matrix(-0.9662 0.258 -0.258 -0.9662 -3923.6438 676.3636)">
			<stop  offset="0" style="stop-color:#D73C2C"/>
			<stop  offset="1" style="stop-color:#F1C40F"/>
		</linearGradient>
		<path class="st1" d="M21.5,30.2c0,0-2.2,1.4-1.5,5.8c-2.6-0.8-5.1-5-4.9-8.4c0.3-3.5,1.1-3.3,3-4.2c1.8-0.9,1.8-0.3,1.8-0.3
			s-1.4,0.8-1.7,2.5C17.4,28.4,21.5,30.2,21.5,30.2z"/>
		
			<linearGradient id="SVGID_00000052791914040536946090000011725389609981488276_" gradientUnits="userSpaceOnUse" x1="-3990.7505" y1="-382.6736" x2="-3980.3643" y2="-394.8072" gradientTransform="matrix(-0.9662 0.258 -0.258 -0.9662 -3923.6438 676.3636)">
			<stop  offset="0" style="stop-color:#D73C2C"/>
			<stop  offset="1" style="stop-color:#F1C40F"/>
		</linearGradient>
		<path style="fill:url(#SVGID_00000052791914040536946090000011725389609981488276_);" d="M15,27.2c0,0,0.3-1.5,0.8-2.6
			c0.9-2.1,3.7-6.2,7.9-8.7c2-1.1,4.1-2.1,8.5-2.1s10.2,3,10.2,3s-5.5,1.5-10.2,7.1c-1.6-0.9-5.4-1.9-7.4-1.8
			c-2.2,0-4.3,0.7-5.9,1.5C16.1,24.8,15,27.2,15,27.2z"/>
		
			<linearGradient id="SVGID_00000016773901500520725550000012309839197357207704_" gradientUnits="userSpaceOnUse" x1="-712.2426" y1="655.4406" x2="-702.0397" y2="655.4406" gradientTransform="matrix(0.9119 0.4105 0.4105 -0.9119 384.6551 916.6011)">
			<stop  offset="0.5696" style="stop-color:#0085FF"/>
			<stop  offset="0.6361" style="stop-color:#017FF6"/>
			<stop  offset="0.7427" style="stop-color:#036DDF"/>
			<stop  offset="0.875" style="stop-color:#0751B9"/>
			<stop  offset="1" style="stop-color:#0B318F"/>
		</linearGradient>
		<path style="fill:url(#SVGID_00000016773901500520725550000012309839197357207704_);" d="M13.5,20.9c0,0,2.7,7-10.9,10.1
			c0,0,0.5,2.8-2.6,5c0.8-0.3,7.6,0.5,13-5.2c2-2.1,2.1-3.5,2.4-5.4c0.3-1.5-0.8-4.3-1.6-5.6C12.7,18.5,13.5,20.9,13.5,20.9z"/>
		
			<linearGradient id="SVGID_00000062160511211107234830000003528932195789106873_" gradientUnits="userSpaceOnUse" x1="-725.0309" y1="668.0117" x2="-702.126" y2="668.0117" gradientTransform="matrix(0.9119 0.4105 0.4105 -0.9119 384.6551 916.6011)">
			<stop  offset="0.5701" style="stop-color:#0085FF"/>
			<stop  offset="0.6365" style="stop-color:#017FF6"/>
			<stop  offset="0.7429" style="stop-color:#036DDF"/>
			<stop  offset="0.8751" style="stop-color:#0751B9"/>
			<stop  offset="1" style="stop-color:#0B318F"/>
		</linearGradient>
		<path style="fill:url(#SVGID_00000062160511211107234830000003528932195789106873_);" d="M13.8,29.4c0.5-1.8,0.7-2.8,0.3-5.1
			c-0.5-3.2-1.1-6.7-6.7-9.7c-3.1-1.7-4.4-2-4.4-2S6.2,4.4,2.1,0c1.3,0.2,4.4,1.3,6.6,2.6C10.6,3.7,13.1,5.1,15,8
			c2.1,3.2,2.4,6.4,2.4,7c0.3,3.7-0.3,7.7-2.2,11.9C15,27.2,13.8,29.6,13.8,29.4z"/>
	</g>
	<g>
		<path class="st5" d="M90.9,19.3V18h-9.3v-1.3h-2.8V18h-9.3v1.5h4.1l-4.7,6h2.8v0.2v1.7v1.5v1.7v0.7v0.8h14.2h2h0.9v-6.5h2.9
			l-4.7-6L90.9,19.3L90.9,19.3z M78.7,19.3V24h-4.3H73l3.8-4.7C76.8,19.3,78.7,19.3,78.7,19.3z M74.5,25.5h11.5v1.7H74.5V25.5z
			 M74.5,30.4v-1.7h11.5v1.7H74.5z M87.3,24.1h-1.5h-4.3v-4.7h2.1L87.3,24.1z"/>
		<rect x="69.8" y="33" class="st5" width="20.7" height="1.5"/>
	</g>
	<rect x="94.2" y="33" class="st5" width="20.7" height="1.5"/>
	<path class="st5" d="M96.1,25.4v0.2v1.7v1.5v1.7v0.7v0.8h14.2h2h0.9v-6.5h2.9l-4.7-6h4V18H106v-1.3h-2.8V18h-9.3v1.5H98l-4.7,6
		H96.1z M110.3,25.5v1.7H98.9v-1.7H110.3z M98.9,30.4v-1.7h11.4v1.7H98.9z M108,19.3l3.8,4.7h-1.5H106v-4.7
		C106,19.3,108,19.3,108,19.3z M103.2,19.3V24h-4.3h-0.1h-1.4l3.8-4.7C101.2,19.3,103.2,19.3,103.2,19.3z"/>
	<g>
		<polygon class="st5" points="63,16.7 60.2,16.7 60.2,18 51.7,18 51.7,16.7 48.9,16.7 48.9,18 45,18 45,19.3 48.9,19.3 48.9,21.5 
			51.7,21.5 51.7,19.3 60.2,19.3 60.2,21.5 63,21.5 63,19.3 66.5,19.3 66.5,18 63,18 		"/>
		<polygon class="st5" points="46,34.5 48.7,34.5 50,24.1 47.3,24.1 		"/>
		<polygon class="st5" points="61.5,24.1 63.4,34.5 66.2,34.5 64.3,24.1 		"/>
		<polygon class="st6" points="59.4,23.3 56.7,23.3 57.6,28 60.4,28 		"/>
		<path class="st5" d="M60.7,30.2H58l0.6,2.8h-5v-9.7h-2.8v9.4c0,0.4,0.2,1.8,2.4,1.8h0.4h7.3l0,0h0.7L60.7,30.2z"/>
	</g>
</g>
</svg>
