<!DOCTYPE svg PUBLIC "-//W3C//DTD SVG 1.0//EN" "http://www.w3.org/TR/2001/REC-SVG-20010904/DTD/svg10.dtd">
<svg xmlns="http://www.w3.org/2000/svg" xmlns:xlink="http://www.w3.org/1999/xlink" width="1000" height="1000" viewBox="-500 -500 1000 1000" version="1.1">
	<g class="symbol" id="leo_template">
		<g transform="translate(-20, -25)">
			<path transform="translate (0, -35) scale(0.2, 0.2)" d="M215.7188 429.8906 Q207 436.5 193.2188 436.5 Q177.0469 436.5 164.8125 424.125 Q152.5781 411.75 152.5781 393.0469 Q152.5781 380.3906 154.8906 365.625 Q157.2188 350.8594 166.0781 323.7188 Q174.7969 297.1406 176.9688 283.0156 Q179.1562 268.875 179.1562 256.7812 Q179.1562 200.6719 139.9219 200.6719 Q121.6406 200.6719 111.2344 211.8594 Q100.8281 223.0312 100.8281 242.4375 Q100.8281 261 109.9688 289.8281 Q118.4062 316.5469 118.4062 332.5781 Q118.4062 354.5156 102.7188 370.2031 Q87.0469 385.875 65.1094 385.875 Q43.1719 385.875 27.4844 370.2031 Q11.8125 354.5156 11.8125 332.5781 Q11.8125 310.6406 27.4844 294.9688 Q43.1719 279.2812 65.1094 279.2812 Q79.875 279.2812 91.8281 286.4531 Q83.5312 261.8438 83.5312 242.4375 Q83.5312 216.1406 98.8594 200.1875 Q114.1875 184.2188 139.9219 184.2188 Q166.7812 184.2188 181.6094 203.5625 Q196.4531 222.8906 196.4531 256.7812 Q196.4531 268.5938 194.2656 282.4531 Q192.0938 296.2969 183.5156 322.5938 Q174.5156 350.0156 172.1875 365.0625 Q169.875 380.1094 169.875 393.0469 Q169.875 405.2812 176.7656 412.7344 Q183.6562 420.1875 193.2188 420.1875 Q207.7031 420.1875 215.7188 414.7031 L215.7188 429.8906 ZM65.1094 369.4219 Q79.875 369.4219 90.4844 358.6719 Q101.1094 347.9062 101.1094 332.5781 Q101.1094 317.25 90.5625 306.5 Q80.0156 295.7344 65.1094 295.7344 Q50.2031 295.7344 39.6562 306.5625 Q29.1094 317.3906 29.1094 332.5781 Q29.1094 347.9062 39.6562 358.6719 Q50.2031 369.4219 65.1094 369.4219 Z" stroke="black"/>
		</g>
	</g>
</svg>
