<!DOCTYPE svg PUBLIC "-//W3C//DTD SVG 1.0//EN" "http://www.w3.org/TR/2001/REC-SVG-20010904/DTD/svg10.dtd">
<svg xmlns="http://www.w3.org/2000/svg" xmlns:xlink="http://www.w3.org/1999/xlink" width="1000" height="1000" viewBox="-500 -500 1000 1000" version="1.1">
	<g class="symbol" id="moon_template">
		<!--<circle cx="0" cy="0" r="20" fill="white"/>-->
			<g id="moon_path">
				<path transform="scale(0.18, 0.18)  translate(-100, -315)" d="M24.1875 192.9375 Q42.75 186.8906 63.1406 186.8906 Q97.0312 186.8906 126.4219 203.9062 Q155.8125 220.9219 172.8281 250.3125 Q189.8438 279.7031 189.8438 313.5938 Q189.8438 347.4844 172.8281 376.9531 Q155.8125 406.4062 126.3438 423.3438 Q96.8906 440.2969 63.1406 440.2969 Q42.75 440.2969 24.1875 434.25 Q67.7812 423.5625 94.2188 389.6719 Q120.6562 355.7812 120.6562 313.5938 Q120.6562 271.2656 94.2188 237.375 Q67.7812 203.4844 24.1875 192.9375 ZM56.6719 431.1562 Q58.3594 431.7188 63.1406 431.7188 Q112.3594 431.7188 146.7344 397.3281 Q181.125 362.9531 181.125 313.5938 Q181.125 281.5312 165.4375 254.1094 Q149.7656 226.6875 122.4062 211.0781 Q95.0625 195.4688 63.1406 195.4688 Q58.3594 195.4688 56.6719 196.0312 Q92.25 215.7188 110.8125 246.3125 Q129.375 276.8906 129.375 313.5938 Q129.375 350.1562 110.8125 380.8125 Q92.25 411.4688 56.6719 431.1562 Z" stroke="none"/>
			</g>
		<!--<circle cx="0" cy="0" r="2" fill="red"/>-->
	</g>
</svg>
