<!DOCTYPE svg PUBLIC "-//W3C//DTD SVG 1.0//EN" "http://www.w3.org/TR/2001/REC-SVG-20010904/DTD/svg10.dtd">
<svg xmlns="http://www.w3.org/2000/svg" xmlns:xlink="http://www.w3.org/1999/xlink" width="1000" height="1000" viewBox="-500 -500 1000 1000" version="1.1">
	<g class="symbol" id="char-cancer_template">
		<g transform="translate(0, -40)">
			<path transform="translate(0, -40) scale(0.2, 0.2)" d="M242.4375 227.25 Q221.7656 216.5625 185.8281 208.7656 Q149.9062 200.9531 123.8906 200.9531 Q113.2031 200.9531 95.9062 202.6406 Q107.1562 210.375 113.3438 222.2656 Q119.5312 234.1406 119.5312 247.3594 Q119.5312 269.2969 103.8438 284.9844 Q88.1719 300.6562 66.2344 300.6562 Q44.2969 300.6562 28.6094 284.9844 Q12.9375 269.2969 12.9375 247.3594 Q12.9375 229.6406 24.6094 214.1719 Q36.2812 198.7031 62.5781 191.6094 Q88.875 184.5 123.8906 184.5 Q150.6094 184.5 187.875 192.5156 Q225.1406 200.5312 242.4375 210.7969 L242.4375 227.25 ZM66.2344 284.2031 Q81 284.2031 91.6094 273.2344 Q102.2344 262.2656 102.2344 247.3594 Q102.2344 232.3125 91.6094 221.4219 Q81 210.5156 66.2344 210.5156 Q51.4688 210.5156 40.8438 221.4844 Q30.2344 232.4531 30.2344 247.3594 Q30.2344 262.2656 40.8438 273.2344 Q51.4688 284.2031 66.2344 284.2031 ZM159.6094 367.7344 Q148.3594 360 142.1719 348.125 Q135.9844 336.2344 135.9844 323.1562 Q135.9844 301.2188 151.6562 285.5469 Q167.3438 269.8594 189.2812 269.8594 Q211.0781 269.8594 226.75 285.5469 Q242.4375 301.2188 242.4375 323.1562 Q242.4375 340.7344 230.8281 356.2031 Q219.2344 371.6719 192.9375 378.7812 Q166.6406 385.875 131.625 385.875 Q104.9062 385.875 67.5625 377.9375 Q30.2344 369.9844 12.9375 359.7188 L12.9375 343.2656 Q33.6094 353.8125 69.5312 361.625 Q105.4688 369.4219 131.625 369.4219 Q142.3125 369.4219 159.6094 367.7344 ZM189.2812 360 Q203.9062 360 214.5938 349.0312 Q225.2812 338.0625 225.2812 323.1562 Q225.2812 308.1094 214.6562 297.1406 Q204.0469 286.1719 189.2812 286.1719 Q174.5156 286.1719 163.8906 297.1406 Q153.2812 308.1094 153.2812 323.1562 Q153.2812 338.0625 163.8906 349.0312 Q174.5156 360 189.2812 360 Z" stroke="black"/>
		</g>
	</g>
		<!--<circle cx="0" cy="0" r="2" fill="red"/>-->
</svg>
