<svg xmlns="http://www.w3.org/2000/svg" xmlns:xlink="http://www.w3.org/1999/xlink" width="1000" height="1000" viewBox="-500 -500 1000 1000" version="1.1">
	<g class="symbol" id="char-pluto_template">
		<!--<circle cx="0" cy="0" r="20" fill="white"/>-->
		<g id="char-pluto_path" transform="translate(0, -40)">
			<path transform="scale(0.18, 0.18) translate(35, -170)" d="M23.0625 184.5 L78.3281 184.5 Q107.2969 184.5 123.75 199.3438 Q140.2031 214.1719 140.2031 239.3438 Q140.2031 264.375 123.75 279.2188 Q107.2969 294.0469 78.3281 294.0469 L40.3594 294.0469 L40.3594 369.4219 L138.7969 369.4219 L138.7969 385.875 L23.0625 385.875 L23.0625 184.5 ZM40.3594 277.5938 L79.7344 277.5938 Q100.2656 277.5938 111.5781 267.3281 Q122.9062 257.0625 122.9062 239.3438 Q122.9062 221.9062 111.8594 211.4375 Q100.8281 200.9531 79.7344 200.9531 L40.3594 200.9531 L40.3594 277.5938 Z" stroke="none"/>
		</g>
		<!--<circle cx="0" cy="0" r="2" fill="red"/>-->
	</g>
</svg>
