<!DOCTYPE svg PUBLIC "-//W3C//DTD SVG 1.0//EN" "http://www.w3.org/TR/2001/REC-SVG-20010904/DTD/svg10.dtd">
<svg xmlns="http://www.w3.org/2000/svg" xmlns:xlink="http://www.w3.org/1999/xlink" width="1000" height="1000" viewBox="-500 -500 1000 1000" version="1.1">
	<g class="symbol" id="char-capricorn_template">
		<g transform="translate(0, -40)">
			<path transform="translate(0, -40) scale(0.2, 0.2)" d="M185.7656 264.6562 Q189.8438 270 199.9688 281.9531 Q221.4844 306.8438 227.1094 319.9219 Q232.7344 333 232.7344 344.3906 Q232.7344 375.6094 213.8906 393.6094 Q195.0469 411.6094 166.2188 411.75 L166.2188 395.4375 Q188.5781 394.875 202 380.8125 Q215.4375 366.75 215.4375 344.3906 Q215.4375 334.4062 210.2344 322.5938 Q205.0312 310.7812 184.9219 287.2969 Q168.3281 267.75 162.7031 258.3281 Q144.4219 250.875 125.2969 238.6406 L75.7969 396.8438 L8.2969 190.2656 L24.4688 184.5 L75.7969 341.0156 L116.0156 212.2031 Q137.6719 227.5312 153.5625 236.1094 Q152.2969 231.1875 152.2969 224.8594 Q152.2969 207.9844 163.8281 196.25 Q175.3594 184.5 192.0938 184.5 Q208.8281 184.5 220.3594 196.25 Q231.8906 207.9844 231.8906 224.8594 Q231.8906 243.9844 220.7812 254.4688 Q209.6719 264.9375 192.0938 264.9375 Q187.875 264.9375 185.7656 264.6562 ZM174.2344 245.1094 Q185.0625 248.4844 192.0938 248.4844 Q201.9375 248.4844 208.2656 242.0156 Q214.5938 235.5469 214.5938 224.8594 Q214.5938 215.1562 207.9844 208.0625 Q201.375 200.9531 192.0938 200.9531 Q182.8125 200.9531 176.2031 208.0625 Q169.5938 215.1562 169.5938 224.8594 Q169.5938 234.9844 174.2344 245.1094 Z" stroke="black"/>
		</g>
	</g>
		<!--<circle cx="0" cy="0" r="2" fill="red"/>-->
</svg>
