<!DOCTYPE svg PUBLIC "-//W3C//DTD SVG 1.0//EN" "http://www.w3.org/TR/2001/REC-SVG-20010904/DTD/svg10.dtd">
<svg xmlns="http://www.w3.org/2000/svg" xmlns:xlink="http://www.w3.org/1999/xlink" width="1000" height="1000" viewBox="-500 -500 1000 1000" version="1.1">
  <g class="symbol" id="char-sun_template">
  <!--<circle cx="0" cy="0" r="20" fill="white"/>-->
    <g id="char-sun_path" transform="translate(0, -40)">
      <path transform="scale(0.2, 0.2) translate(-15.5, -191)" d="M115.1719 195.75 Q154.2656 195.75 182.25 223.7344 Q210.2344 251.7188 210.2344 290.8125 Q210.2344 329.9062 182.25 357.8906 Q154.2656 385.875 115.1719 385.875 Q76.0781 385.875 48.0938 357.8906 Q20.1094 329.9062 20.1094 290.8125 Q20.1094 251.7188 48.0938 223.7344 Q76.0781 195.75 115.1719 195.75 ZM115.1719 377.2969 Q150.6094 377.2969 176.125 351.7812 Q201.6562 326.25 201.6562 290.8125 Q201.6562 255.2344 176.2656 229.8594 Q150.8906 204.4688 115.1719 204.4688 Q79.7344 204.4688 54.2812 229.9219 Q28.8281 255.375 28.8281 290.8125 Q28.8281 326.5312 54.2031 351.9219 Q79.5938 377.2969 115.1719 377.2969 ZM115.1719 276.4688 Q121.2188 276.4688 125.4375 280.625 Q129.6562 284.7656 129.6562 290.8125 Q129.6562 296.8594 125.4375 301.0781 Q121.2188 305.2969 115.1719 305.2969 Q109.125 305.2969 104.9688 301.0781 Q100.8281 296.8594 100.8281 290.8125 Q100.8281 284.7656 104.9688 280.625 Q109.125 276.4688 115.1719 276.4688 Z" stroke="none"/>
    </g>
    <!--<circle cx="0" cy="0" r="2" fill="red"/>-->
  </g>
</svg>
