<!DOCTYPE svg PUBLIC "-//W3C//DTD SVG 1.0//EN" "http://www.w3.org/TR/2001/REC-SVG-20010904/DTD/svg10.dtd">
<svg xmlns="http://www.w3.org/2000/svg" xmlns:xlink="http://www.w3.org/1999/xlink" width="1000" height="1000" viewBox="-500 -500 1000 1000" version="1.1">
	<!--Unicode Character 'SATURN' (U+2644)-->
	<g class="symbol" id="char-saturn_template">
		<!--<circle cx="0" cy="0" r="20" fill="white"/>-->
		<g id="char-saturn_path" transform="translate(0, -40)">
			<path transform="scale(0.18, 0.18) translate(50, -175)" d="M43.1719 277.875 Q56.3906 258.0469 80.0156 258.0469 Q100.2656 258.0469 112.3594 270.4219 Q124.4531 282.7969 124.4531 299.8125 Q124.4531 308.6719 121.5 317.8125 Q118.5469 326.9531 107.7188 339.75 Q100.2656 348.3281 97.9375 355.5781 Q95.625 362.8125 95.625 371.25 Q95.625 373.7812 96.9531 378.9219 Q98.2969 384.0469 99.9844 385.875 L82.125 385.875 Q78.3281 381.375 78.3281 370.9688 Q78.3281 355.5 82.5469 346.9219 Q86.7656 338.3438 94.7812 329.7656 Q107.1562 315.7031 107.1562 299.8125 Q107.1562 289.2656 99.625 281.8125 Q92.1094 274.3594 80.0156 274.3594 Q67.5 274.3594 58.9844 279.5625 Q50.4844 284.7656 43.1719 297.4219 L43.1719 385.875 L25.875 385.875 L25.875 222.8906 L7.4531 222.8906 L7.4531 206.4375 L25.875 206.4375 L25.875 184.5 L43.1719 184.5 L43.1719 206.4375 L76.0781 206.4375 L76.0781 222.8906 L43.1719 222.8906 L43.1719 277.875 Z" stroke="none"/>
		</g>
		<!--<circle cx="0" cy="0" r="2" fill="red"/>-->
	</g>
</svg>
