<!DOCTYPE svg PUBLIC "-//W3C//DTD SVG 1.0//EN" "http://www.w3.org/TR/2001/REC-SVG-20010904/DTD/svg10.dtd">
<svg xmlns="http://www.w3.org/2000/svg" xmlns:xlink="http://www.w3.org/1999/xlink" width="1000" height="1000" viewBox="-500 -500 1000 1000" version="1.1">
<g class="symbol" id="taurus_template">
	<g transform="translate(-25, -30)">
		<path transform="translate(2.5, -25) scale(0.2, 0.2)" d="M214.3125 200.6719 Q200.9531 200.6719 191.1719 205.5312 Q181.4062 210.375 174.8594 217.3438 Q168.3281 224.2969 159.8906 235.8281 Q146.8125 253.8281 139.0781 259.1719 Q157.5 267.4688 168.0469 283.8594 Q178.5938 300.2344 178.5938 319.6406 Q178.5938 346.9219 159.1094 366.4062 Q139.6406 385.875 112.3594 385.875 Q85.0781 385.875 65.5938 366.4062 Q46.125 346.9219 46.125 319.6406 Q46.125 300.2344 56.5938 283.9219 Q67.0781 267.6094 85.5 259.4531 Q77.9062 253.9688 64.8281 235.9688 Q56.25 224.2969 49.7812 217.3438 Q43.3125 210.375 33.5312 205.5312 Q23.7656 200.6719 10.4062 200.6719 L10.4062 183.375 Q27.4219 183.375 39.9375 189.6406 Q52.4531 195.8906 60.6094 204.4688 Q68.7656 213.0469 78.75 226.6875 Q91.9688 244.6875 98.7812 249.0469 Q105.6094 253.4062 112.3594 253.4062 Q118.9688 253.4062 125.8594 249.0469 Q132.75 244.6875 145.9688 226.6875 Q155.8125 213.0469 163.9688 204.4688 Q172.125 195.8906 184.7031 189.6406 Q197.2969 183.375 214.3125 183.375 L214.3125 200.6719 ZM112.3594 369.4219 Q132.6094 369.4219 146.9531 354.875 Q161.2969 340.3125 161.2969 319.6406 Q161.2969 298.9688 146.9531 284.4219 Q132.6094 269.8594 112.3594 269.8594 Q92.1094 269.8594 77.7656 284.4219 Q63.4219 298.9688 63.4219 319.6406 Q63.4219 340.3125 77.7656 354.875 Q92.1094 369.4219 112.3594 369.4219 Z" stroke="black"/>
	</g>
</g>
</svg>
