<?xml version="1.0" encoding="utf-8" standalone="no"?>
<!DOCTYPE svg PUBLIC "-//W3C//DTD SVG 1.1//EN"
  "http://www.w3.org/Graphics/SVG/1.1/DTD/svg11.dtd">
<svg xmlns:xlink="http://www.w3.org/1999/xlink" width="371.52pt" height="148.32pt" viewBox="0 0 371.52 148.32" xmlns="http://www.w3.org/2000/svg" version="1.1">
 <metadata>
  <rdf:RDF xmlns:dc="http://purl.org/dc/elements/1.1/" xmlns:cc="http://creativecommons.org/ns#" xmlns:rdf="http://www.w3.org/1999/02/22-rdf-syntax-ns#">
   <cc:Work>
    <dc:type rdf:resource="http://purl.org/dc/dcmitype/StillImage"/>
    <dc:date>2022-04-26T10:42:31.846743</dc:date>
    <dc:format>image/svg+xml</dc:format>
    <dc:creator>
     <cc:Agent>
      <dc:title>Matplotlib v3.5.1, https://matplotlib.org/</dc:title>
     </cc:Agent>
    </dc:creator>
   </cc:Work>
  </rdf:RDF>
 </metadata>
 <defs>
  <style type="text/css">*{stroke-linejoin: round; stroke-linecap: butt}</style>
 </defs>
 <g id="figure_1">
  <g id="patch_1">
   <path d="M 0 148.32 
L 371.52 148.32 
L 371.52 0 
L 0 0 
z
" style="fill: #ffffff"/>
  </g>
  <g id="axes_1">
   <g id="patch_2">
    <path d="M 51.84 141.12 
C 63.678666 141.12 75.034045 136.416448 83.405247 128.045247 
C 91.776448 119.674045 96.48 108.318666 96.48 96.48 
C 96.48 84.641334 91.776448 73.285955 83.405247 64.914753 
C 75.034045 56.543552 63.678666 51.84 51.84 51.84 
C 40.001334 51.84 28.645955 56.543552 20.274753 64.914753 
C 11.903552 73.285955 7.2 84.641334 7.2 96.48 
C 7.2 108.318666 11.903552 119.674045 20.274753 128.045247 
C 28.645955 136.416448 40.001334 141.12 51.84 141.12 
z
" clip-path="url(#p0a5cc227ac)" style="fill: #426174"/>
   </g>
   <g id="patch_3">
    <path d="M 51.84 124.38 
C 59.239166 124.38 66.336278 121.44028 71.568279 116.208279 
C 76.80028 110.976278 79.74 103.879166 79.74 96.48 
C 79.74 89.080834 76.80028 81.983722 71.568279 76.751721 
C 66.336278 71.51972 59.239166 68.58 51.84 68.58 
C 44.440834 68.58 37.343722 71.51972 32.111721 76.751721 
C 26.87972 81.983722 23.94 89.080834 23.94 96.48 
C 23.94 103.879166 26.87972 110.976278 32.111721 116.208279 
C 37.343722 121.44028 44.440834 124.38 51.84 124.38 
z
" clip-path="url(#p0a5cc227ac)" style="fill: #ffffff"/>
   </g>
   <g id="patch_4">
    <path d="M 141.12 141.12 
C 152.958666 141.12 164.314045 136.416448 172.685247 128.045247 
C 181.056448 119.674045 185.76 108.318666 185.76 96.48 
C 185.76 84.641334 181.056448 73.285955 172.685247 64.914753 
C 164.314045 56.543552 152.958666 51.84 141.12 51.84 
C 129.281334 51.84 117.925955 56.543552 109.554753 64.914753 
C 101.183552 73.285955 96.48 84.641334 96.48 96.48 
C 96.48 108.318666 101.183552 119.674045 109.554753 128.045247 
C 117.925955 136.416448 129.281334 141.12 141.12 141.12 
z
" clip-path="url(#p0a5cc227ac)" style="fill: #426174"/>
   </g>
   <g id="patch_5">
    <path d="M 141.12 124.38 
C 148.519166 124.38 155.616278 121.44028 160.848279 116.208279 
C 166.08028 110.976278 169.02 103.879166 169.02 96.48 
C 169.02 89.080834 166.08028 81.983722 160.848279 76.751721 
C 155.616278 71.51972 148.519166 68.58 141.12 68.58 
C 133.720834 68.58 126.623722 71.51972 121.391721 76.751721 
C 116.15972 81.983722 113.22 89.080834 113.22 96.48 
C 113.22 103.879166 116.15972 110.976278 121.391721 116.208279 
C 126.623722 121.44028 133.720834 124.38 141.12 124.38 
z
" clip-path="url(#p0a5cc227ac)" style="fill: #ffffff"/>
   </g>
   <g id="patch_6">
    <path d="M 230.4 141.12 
C 242.238666 141.12 253.594045 136.416448 261.965247 128.045247 
C 270.336448 119.674045 275.04 108.318666 275.04 96.48 
C 275.04 84.641334 270.336448 73.285955 261.965247 64.914753 
C 253.594045 56.543552 242.238666 51.84 230.4 51.84 
C 218.561334 51.84 207.205955 56.543552 198.834753 64.914753 
C 190.463552 73.285955 185.76 84.641334 185.76 96.48 
C 185.76 108.318666 190.463552 119.674045 198.834753 128.045247 
C 207.205955 136.416448 218.561334 141.12 230.4 141.12 
z
" clip-path="url(#p0a5cc227ac)" style="fill: #426174"/>
   </g>
   <g id="patch_7">
    <path d="M 230.4 124.38 
C 237.799166 124.38 244.896278 121.44028 250.128279 116.208279 
C 255.36028 110.976278 258.3 103.879166 258.3 96.48 
C 258.3 89.080834 255.36028 81.983722 250.128279 76.751721 
C 244.896278 71.51972 237.799166 68.58 230.4 68.58 
C 223.000834 68.58 215.903722 71.51972 210.671721 76.751721 
C 205.43972 81.983722 202.5 89.080834 202.5 96.48 
C 202.5 103.879166 205.43972 110.976278 210.671721 116.208279 
C 215.903722 121.44028 223.000834 124.38 230.4 124.38 
z
" clip-path="url(#p0a5cc227ac)" style="fill: #ffffff"/>
   </g>
   <g id="patch_8">
    <path d="M 319.68 141.12 
C 331.518666 141.12 342.874045 136.416448 351.245247 128.045247 
C 359.616448 119.674045 364.32 108.318666 364.32 96.48 
C 364.32 84.641334 359.616448 73.285955 351.245247 64.914753 
C 342.874045 56.543552 331.518666 51.84 319.68 51.84 
C 307.841334 51.84 296.485955 56.543552 288.114753 64.914753 
C 279.743552 73.285955 275.04 84.641334 275.04 96.48 
C 275.04 108.318666 279.743552 119.674045 288.114753 128.045247 
C 296.485955 136.416448 307.841334 141.12 319.68 141.12 
z
" clip-path="url(#p0a5cc227ac)" style="fill: #426174"/>
   </g>
   <g id="patch_9">
    <path d="M 319.68 124.38 
C 327.079166 124.38 334.176278 121.44028 339.408279 116.208279 
C 344.64028 110.976278 347.58 103.879166 347.58 96.48 
C 347.58 89.080834 344.64028 81.983722 339.408279 76.751721 
C 334.176278 71.51972 327.079166 68.58 319.68 68.58 
C 312.280834 68.58 305.183722 71.51972 299.951721 76.751721 
C 294.71972 81.983722 291.78 89.080834 291.78 96.48 
C 291.78 103.879166 294.71972 110.976278 299.951721 116.208279 
C 305.183722 121.44028 312.280834 124.38 319.68 124.38 
z
" clip-path="url(#p0a5cc227ac)" style="fill: #ffffff"/>
   </g>
   <g id="patch_10">
    <path d="M 7.2 96.48 
L 23.94 96.48 
L 23.94 7.2 
L 7.2 7.2 
z
" clip-path="url(#p0a5cc227ac)" style="fill: #426174"/>
   </g>
   <g id="patch_11">
    <path d="M 185.76 96.48 
L 275.04 96.48 
L 275.04 7.2 
L 185.76 7.2 
z
" clip-path="url(#p0a5cc227ac)" style="fill: #ffffff"/>
   </g>
   <g id="patch_12">
    <path d="M 185.76 97.596 
L 202.5 97.596 
L 202.5 8.316 
L 185.76 8.316 
z
" clip-path="url(#p0a5cc227ac)" style="fill: #426174"/>
   </g>
   <g id="patch_13">
    <path d="M 347.58 96.48 
L 364.32 96.48 
L 364.32 141.12 
L 347.58 141.12 
z
" clip-path="url(#p0a5cc227ac)" style="fill: #426174"/>
   </g>
  </g>
 </g>
 <defs>
  <clipPath id="p0a5cc227ac">
   <rect x="7.2" y="7.2" width="357.12" height="133.92"/>
  </clipPath>
 </defs>
</svg>
