<!DOCTYPE svg PUBLIC "-//W3C//DTD SVG 1.0//EN" "http://www.w3.org/TR/2001/REC-SVG-20010904/DTD/svg10.dtd">
<svg xmlns="http://www.w3.org/2000/svg" xmlns:xlink="http://www.w3.org/1999/xlink" width="1000" height="1000" viewBox="-500 -500 1000 1000" version="1.1">
	<!--Unicode Character 'JUPITER' (U+2643)-->
	<g class="symbol" id="char-jupiter_template">
		<!--<circle cx="0" cy="0" r="20" fill="white"/>-->
		<g id="char-jupiter_path" transform="translate(0, -40)">
			<path transform="scale(0.18, 0.18) translate(10, -175)" d="M165.0938 385.875 L147.7969 385.875 L147.7969 335.5312 L12.9375 335.5312 L12.9375 319.0781 L67.0781 319.0781 Q84.0938 319.0781 96.1875 306.9844 Q108.2812 294.8906 108.2812 277.875 Q108.2812 260.1562 98.2188 248.7031 Q88.1719 237.2344 70.0312 237.2344 Q31.6406 237.2344 31.6406 277.875 L14.3438 277.875 Q14.3438 250.4531 28.9688 235.625 Q43.5938 220.7812 70.0312 220.7812 Q94.6406 220.7812 110.1094 236.9531 Q125.5781 253.125 125.5781 277.875 Q125.5781 290.1094 119.8125 301.2188 Q114.0469 312.3281 103.6406 319.0781 L147.7969 319.0781 L147.7969 184.5 L165.0938 184.5 L165.0938 385.875 Z" stroke="none"/>
		</g>
		<!--<circle cx="0" cy="0" r="2" fill="red"/>-->
	</g>
</svg>
