<!DOCTYPE svg PUBLIC "-//W3C//DTD SVG 1.0//EN" "http://www.w3.org/TR/2001/REC-SVG-20010904/DTD/svg10.dtd">
<svg xmlns="http://www.w3.org/2000/svg" xmlns:xlink="http://www.w3.org/1999/xlink" width="1000" height="1000" viewBox="-500 -500 1000 1000" version="1.1">
	<g class="symbol" id="char-virgo_template">
		<g transform="translate(0, -50)">
			<path transform="translate(0, -35) scale(0.2, 0.2)" d="M288.5625 296.2969 Q288.5625 388.8281 217.125 403.1719 L217.125 432.5625 L199.8281 432.5625 L199.8281 405.7031 Q189.4219 406.5469 180.2812 406.5469 L180.2812 389.3906 Q192.9375 389.3906 199.8281 388.6875 L199.8281 234.9844 Q199.8281 221.2031 190.1875 211.0781 Q180.5625 200.9531 167.0625 200.9531 Q153.7031 200.9531 143.9219 211.0781 Q134.1562 221.2031 134.1562 234.9844 L134.1562 385.875 L116.8594 385.875 L116.8594 234.9844 Q116.8594 221.2031 107.1562 211.0781 Q97.4531 200.9531 84.0938 200.9531 Q70.7344 200.9531 61.0312 211.0781 Q51.3281 221.2031 51.3281 234.9844 L51.3281 385.875 L34.0312 385.875 L34.0312 234.9844 Q34.0312 200.9531 12.0938 200.9531 L12.0938 184.5 Q22.9219 184.5 32.9688 191.1875 Q43.0312 197.8594 46.125 206.7188 Q50.7656 197.0156 61.375 190.7656 Q72 184.5 84.0938 184.5 Q113.3438 184.5 125.5781 210.7969 Q137.8125 184.5 167.0625 184.5 Q194.3438 184.5 209.6719 208.125 Q215.7188 196.0312 223.7344 190.2656 Q231.75 184.5 244.2656 184.5 Q264.0938 184.5 276.3281 199.4062 Q288.5625 214.3125 288.5625 234.9844 L288.5625 296.2969 ZM271.2656 296.2969 L271.2656 234.9844 Q271.2656 219.9375 264.0156 210.4531 Q256.7812 200.9531 244.2656 200.9531 Q231.75 200.9531 224.4375 210.4531 Q217.125 219.9375 217.125 234.9844 L217.125 386.1562 Q271.2656 372.9375 271.2656 296.2969 Z" stroke="black"/>
		</g>
	</g>
	<!--<circle cx="0" cy="0" r="2" fill="red"/>-->
</svg>
