<!DOCTYPE svg PUBLIC "-//W3C//DTD SVG 1.0//EN" "http://www.w3.org/TR/2001/REC-SVG-20010904/DTD/svg10.dtd">
<svg xmlns="http://www.w3.org/2000/svg" xmlns:xlink="http://www.w3.org/1999/xlink" width="1000" height="1000" viewBox="-500 -500 1000 1000" version="1.1">
	<g class="symbol" id="pisces_template">
		<g transform="translate(-25, -25)">
			<path transform="translate(5, -33) scale(0.2, 0.2)" d="M190.6875 293.4844 L154.9688 293.4844 Q157.2188 349.1719 175.3594 385.875 L158.0625 385.875 Q140.625 351.1406 137.6719 293.4844 L62.7188 293.4844 Q59.7656 351.1406 42.3281 385.875 L25.0312 385.875 Q43.1719 349.1719 45.5625 293.4844 L9.8438 293.4844 L9.8438 277.0312 L45.2812 277.0312 Q43.4531 222.1875 25.0312 184.5 L42.3281 184.5 Q59.9062 220.2188 62.4375 277.0312 L137.6719 277.0312 Q140.625 219.7969 158.0625 184.5 L175.3594 184.5 Q157.2188 221.7656 154.9688 277.0312 L190.6875 277.0312 L190.6875 293.4844 Z" stroke="black"/>
		</g>
	</g>
</svg>
