<!DOCTYPE svg PUBLIC "-//W3C//DTD SVG 1.0//EN" "http://www.w3.org/TR/2001/REC-SVG-20010904/DTD/svg10.dtd">
<svg xmlns="http://www.w3.org/2000/svg" xmlns:xlink="http://www.w3.org/1999/xlink" width="1000" height="1000" viewBox="-500 -500 1000 1000" version="1.1">
	<!--Unicode Character 'FEMALE SIGN' (U+2640)-->
	<g class="symbol" id="venus_template">
		<!--<circle cx="0" cy="0" r="20" fill="white"/>-->
		<g id="venus_path" transform="translate(-20, -20)">
			<path transform="scale(0.18, 0.18) translate(5, -185)" d="M97.875 339.4688 Q67.2188 335.6719 48.0156 313.3906 Q28.8281 291.0938 28.8281 262.2656 Q28.8281 230.2031 51.6094 207.3594 Q74.3906 184.5 106.5938 184.5 Q138.5156 184.5 161.4375 207.4219 Q184.3594 230.3438 184.3594 262.2656 Q184.3594 291.0938 165.0938 313.3906 Q145.8281 335.6719 115.1719 339.4688 L115.1719 368.5781 L144 368.5781 L144 385.875 L115.1719 385.875 L115.1719 414.7031 L97.875 414.7031 L97.875 385.875 L69.1875 385.875 L69.1875 368.5781 L97.875 368.5781 L97.875 339.4688 ZM106.5938 322.7344 Q131.4844 322.7344 149.2656 305.0156 Q167.0625 287.2969 167.0625 262.2656 Q167.0625 237.2344 149.3438 219.5156 Q131.625 201.7969 106.5938 201.7969 Q81.5625 201.7969 63.8438 219.5938 Q46.125 237.375 46.125 262.2656 Q46.125 287.2969 63.8438 305.0156 Q81.5625 322.7344 106.5938 322.7344 Z" stroke="none"/>
		</g>
		<!--<circle cx="0" cy="0" r="2" fill="red"/>-->
	</g>
</svg>
