<!DOCTYPE svg PUBLIC "-//W3C//DTD SVG 1.0//EN" "http://www.w3.org/TR/2001/REC-SVG-20010904/DTD/svg10.dtd">
<svg xmlns="http://www.w3.org/2000/svg" xmlns:xlink="http://www.w3.org/1999/xlink" width="1000" height="1000" viewBox="-500 -500 1000 1000" version="1.1">
	<g class="symbol" id="aquarius_template">
		<g transform="translate(-25, -20)">
			<path transform="translate(0, -35) scale(0.2, 0.2)" d="M255.2344 224.2969 Q251.0156 224.2969 247.0781 227.25 Q243.1406 230.2031 236.8125 242.1562 Q228.2344 258.3281 221.2031 262.7656 Q214.1719 267.1875 206.1562 267.1875 Q198.2812 267.1875 191.25 262.7656 Q184.2188 258.3281 175.6406 242.1562 Q169.1719 230.2031 165.2969 227.25 Q161.4375 224.2969 157.2188 224.2969 Q153 224.2969 149.125 227.25 Q145.2656 230.2031 138.9375 242.1562 Q130.3594 258.3281 123.25 262.7656 Q116.1562 267.1875 108.2812 267.1875 Q100.4062 267.1875 93.375 262.7656 Q86.3438 258.3281 77.625 242.1562 Q71.2969 230.2031 67.4219 227.25 Q63.5625 224.2969 59.3438 224.2969 Q55.125 224.2969 51.25 227.25 Q47.3906 230.2031 40.9219 242.1562 Q32.3438 258.3281 25.3125 262.7656 Q18.2812 267.1875 10.4062 267.1875 L10.4062 250.7344 Q14.625 250.7344 18.4844 247.7812 Q22.3594 244.8281 28.6875 232.875 Q37.2656 216.7031 44.3594 212.2812 Q51.4688 207.8438 59.3438 207.8438 Q67.2188 207.8438 74.25 212.2812 Q81.2812 216.7031 90 232.875 Q96.3281 244.8281 100.1875 247.7812 Q104.0625 250.7344 108.2812 250.7344 Q112.5 250.7344 116.3594 247.7812 Q120.2344 244.8281 126.7031 232.875 Q135.2812 216.7031 142.3125 212.2812 Q149.3438 207.8438 157.2188 207.8438 Q165.2344 207.8438 172.2656 212.2812 Q179.2969 216.7031 187.875 232.875 Q194.2031 244.8281 198.1406 247.7812 Q202.0781 250.7344 206.1562 250.7344 Q210.375 250.7344 214.3125 247.7812 Q218.25 244.8281 224.5781 232.875 Q233.1562 216.7031 240.1875 212.2812 Q247.2188 207.8438 255.2344 207.8438 L255.2344 224.2969 ZM255.2344 312.4688 Q251.0156 312.4688 247.0781 315.4219 Q243.1406 318.375 236.8125 330.3281 Q228.2344 346.5 221.2031 350.9375 Q214.1719 355.3594 206.1562 355.3594 Q198.2812 355.3594 191.25 350.9375 Q184.2188 346.5 175.6406 330.3281 Q169.1719 318.375 165.2969 315.4219 Q161.4375 312.4688 157.2188 312.4688 Q153 312.4688 149.125 315.4219 Q145.2656 318.375 138.9375 330.3281 Q130.3594 346.5 123.25 350.9375 Q116.1562 355.3594 108.2812 355.3594 Q100.4062 355.3594 93.375 350.9375 Q86.3438 346.5 77.625 330.3281 Q71.2969 318.375 67.4219 315.4219 Q63.5625 312.4688 59.3438 312.4688 Q55.125 312.4688 51.25 315.4219 Q47.3906 318.375 40.9219 330.3281 Q32.3438 346.5 25.3125 350.9375 Q18.2812 355.3594 10.4062 355.3594 L10.4062 338.9062 Q14.625 338.9062 18.4844 335.9531 Q22.3594 333 28.6875 321.0469 Q37.2656 304.875 44.3594 300.4531 Q51.4688 296.0156 59.3438 296.0156 Q67.2188 296.0156 74.25 300.4531 Q81.2812 304.875 90 321.0469 Q96.3281 333 100.1875 335.9531 Q104.0625 338.9062 108.2812 338.9062 Q112.5 338.9062 116.3594 335.9531 Q120.2344 333 126.7031 321.0469 Q135.2812 304.875 142.3125 300.4531 Q149.3438 296.0156 157.2188 296.0156 Q165.2344 296.0156 172.2656 300.4531 Q179.2969 304.875 187.875 321.0469 Q194.2031 333 198.1406 335.9531 Q202.0781 338.9062 206.1562 338.9062 Q210.375 338.9062 214.3125 335.9531 Q218.25 333 224.5781 321.0469 Q233.1562 304.875 240.1875 300.4531 Q247.2188 296.0156 255.2344 296.0156 L255.2344 312.4688 Z" stroke="black"/>
		</g>
	</g>
</svg>
