<!DOCTYPE svg PUBLIC "-//W3C//DTD SVG 1.0//EN" "http://www.w3.org/TR/2001/REC-SVG-20010904/DTD/svg10.dtd">
<svg xmlns="http://www.w3.org/2000/svg" xmlns:xlink="http://www.w3.org/1999/xlink" width="1000" height="1000" viewBox="-500 -500 1000 1000" version="1.1">
  <!--Unicode Character 'MERCURY' (U+263F)-->
  <g class="symbol" id="char-mercury_template">
	<!--<circle cx="0" cy="0" r="20" fill="white"/> -->
    <g id="char-mercury_path" transform="translate(0, -40)">
      <path transform="scale(0.2, 0.2) translate(-6, -190)" d="M137.9531 222.0469 Q153 230.7656 161.4375 245.3906 Q169.875 260.0156 169.875 276.75 Q169.875 299.6719 154.6875 317.6719 Q139.5 335.6719 115.1719 339.4688 L115.1719 368.5781 L144 368.5781 L144 385.875 L115.1719 385.875 L115.1719 414.7031 L97.875 414.7031 L97.875 385.875 L69.1875 385.875 L69.1875 368.5781 L97.875 368.5781 L97.875 339.4688 Q73.5469 335.6719 58.3594 317.6719 Q43.1719 299.6719 43.1719 276.75 Q43.1719 260.0156 51.6094 245.3906 Q60.0469 230.7656 75.2344 222.0469 Q60.0469 213.1875 51.6094 198.5625 Q43.1719 183.9375 43.1719 167.3438 L60.4688 167.3438 Q60.4688 186.1875 74.0312 199.7656 Q87.6094 213.3281 106.5938 213.3281 Q125.4375 213.3281 139 199.7656 Q152.5781 186.1875 152.5781 167.3438 L169.875 167.3438 Q169.875 183.9375 161.4375 198.5625 Q153 213.1875 137.9531 222.0469 ZM106.5938 322.7344 Q125.4375 322.7344 139 309.1719 Q152.5781 295.5938 152.5781 276.75 Q152.5781 257.7656 139.0781 244.2031 Q125.5781 230.625 106.5938 230.625 Q87.6094 230.625 74.0312 244.2031 Q60.4688 257.7656 60.4688 276.75 Q60.4688 295.7344 74.0312 309.2344 Q87.6094 322.7344 106.5938 322.7344 Z" stroke="none"/>
    </g>
	<!--<circle cx="0" cy="0" r="2" fill="red"/> -->
  </g>
</svg>
