<!DOCTYPE svg PUBLIC "-//W3C//DTD SVG 1.0//EN" "http://www.w3.org/TR/2001/REC-SVG-20010904/DTD/svg10.dtd">
<svg xmlns="http://www.w3.org/2000/svg" xmlns:xlink="http://www.w3.org/1999/xlink" width="1000" height="1000" viewBox="-500 -500 1000 1000" version="1.1">
	<g class="symbol" id="opposition_template">
		<!--<circle cx="0" cy="0" r="20" fill="white"/>-->
		<g transform="translate(-20, -20)">
			<path transform="scale(0.2, 0.2) translate(-16, -200)" d="M125.0156 283.6406 Q115.1719 271.8281 115.1719 256.2188 Q115.1719 238.5 127.8906 225.7812 Q140.625 213.0469 158.3438 213.0469 Q176.2031 213.0469 188.9219 225.7812 Q201.6562 238.5 201.6562 256.2188 Q201.6562 274.2188 189 286.875 Q176.3438 299.5312 158.3438 299.5312 Q143.2969 299.5312 131.0625 289.6875 L105.75 315.2812 Q115.1719 327.7969 115.1719 342.7031 Q115.1719 360.5625 102.5156 373.2188 Q89.8594 385.875 72 385.875 Q54.1406 385.875 41.4844 373.2188 Q28.8281 360.5625 28.8281 342.7031 Q28.8281 324.8438 41.4844 312.1875 Q54.1406 299.5312 72 299.5312 Q87.0469 299.5312 99.4219 309.2344 L125.0156 283.6406 ZM158.3438 290.8125 Q172.5469 290.8125 182.7344 280.625 Q192.9375 270.4219 192.9375 256.2188 Q192.9375 242.1562 182.7344 231.9688 Q172.5469 221.7656 158.3438 221.7656 Q144.2812 221.7656 134.0781 231.9688 Q123.8906 242.1562 123.8906 256.2188 Q123.8906 270.5625 134.0156 280.6875 Q144.1406 290.8125 158.3438 290.8125 ZM72 377.2969 Q86.2031 377.2969 96.3906 367.1094 Q106.5938 356.9062 106.5938 342.7031 Q106.5938 328.3594 96.3906 318.2344 Q86.2031 308.1094 72 308.1094 Q57.7969 308.1094 47.5938 318.3125 Q37.4062 328.5 37.4062 342.7031 Q37.4062 356.9062 47.5938 367.1094 Q57.7969 377.2969 72 377.2969 Z" stroke="none"/>
		</g>
		<!--<circle cx="0" cy="0" r="2" fill="red"/>-->
	</g>
</svg>
