<!DOCTYPE svg PUBLIC "-//W3C//DTD SVG 1.0//EN" "http://www.w3.org/TR/2001/REC-SVG-20010904/DTD/svg10.dtd">
<svg xmlns="http://www.w3.org/2000/svg" xmlns:xlink="http://www.w3.org/1999/xlink" width="1000" height="1000" viewBox="-500 -500 1000 1000" version="1.1">
	<g class="symbol" id="conjunction_template">
		<!--<circle cx="0" cy="0" r="20" fill="white"/>-->
		<g transform="translate(-20, -20)">
			<path transform="scale(0.25, 0.25) translate(-50, -200)" d="M152.5781 255.6562 L177.0469 231.4688 Q188.1562 220.3594 188.9219 220.0781 Q189.7031 219.7969 190.6875 219.7969 Q194.9062 219.7969 194.9062 224.0156 Q194.9062 225 194.5469 225.7031 Q194.2031 226.4062 183.2344 237.6562 L158.9062 261.9844 Q172.8281 278.2969 172.8281 299.5312 Q172.8281 323.1562 155.8125 340.1094 Q138.7969 357.0469 115.1719 357.0469 Q91.5469 357.0469 74.5938 340.1094 Q57.6562 323.1562 57.6562 299.5312 Q57.6562 275.7656 74.5938 258.8281 Q91.5469 241.875 115.1719 241.875 Q136.2656 241.875 152.5781 255.6562 ZM115.1719 348.4688 Q135.4219 348.4688 149.7656 334.0625 Q164.1094 319.6406 164.1094 299.5312 Q164.1094 279.2812 149.7656 264.875 Q135.4219 250.4531 115.1719 250.4531 Q95.0625 250.4531 80.6406 264.875 Q66.2344 279.2812 66.2344 299.5312 Q66.2344 319.6406 80.6406 334.0625 Q95.0625 348.4688 115.1719 348.4688 Z" stroke="none"/>
		</g>
		<!--<circle cx="0" cy="0" r="2" fill="red"/>-->
	</g>
</svg>
