<!DOCTYPE svg PUBLIC "-//W3C//DTD SVG 1.0//EN" "http://www.w3.org/TR/2001/REC-SVG-20010904/DTD/svg10.dtd">
<svg xmlns="http://www.w3.org/2000/svg" xmlns:xlink="http://www.w3.org/1999/xlink" width="1000" height="1000" viewBox="-500 -500 1000 1000" version="1.1">
	<g class="symbol" id="char-aries_template">
		<g transform="translate(0, -40)">
			<path transform=" translate(0, -40) scale(0.2, 0.2)" d="M120.0938 225.1406 Q124.1719 205.7344 138.9375 193.7188 Q153.7031 181.6875 173.1094 181.6875 Q197.8594 181.6875 213.5312 198.5625 Q229.2188 215.4375 229.2188 240.75 Q229.2188 269.5781 212.4062 285.9688 Q195.6094 302.3438 167.9062 302.3438 L167.9062 285.8906 Q188.0156 285.8906 199.9688 274.0781 Q211.9219 262.2656 211.9219 240.75 Q211.9219 221.4844 201.0938 209.8125 Q190.2656 198.1406 172.2656 198.1406 Q153 198.1406 140.8281 214.875 Q128.6719 231.6094 128.6719 258.3281 L128.6719 385.875 L111.5156 385.875 L111.5156 258.3281 Q111.5156 231.6094 99.4219 214.875 Q87.3281 198.1406 67.9219 198.1406 Q49.9219 198.1406 39.0938 209.8125 Q28.2656 221.4844 28.2656 240.75 Q28.2656 262.2656 40.1406 274.0781 Q52.0312 285.8906 72.2812 285.8906 L72.2812 302.3438 Q44.5781 302.3438 27.7656 285.9688 Q10.9688 269.5781 10.9688 240.75 Q10.9688 215.4375 26.6406 198.5625 Q42.3281 181.6875 67.0781 181.6875 Q86.4844 181.6875 101.25 193.7188 Q116.0156 205.7344 120.0938 225.1406 Z" stroke="black"/>
		</g>
		<!--<circle cx="0" cy="0" r="2" fill="red"/>-->
	</g>
</svg>
