<!DOCTYPE svg PUBLIC "-//W3C//DTD SVG 1.0//EN" "http://www.w3.org/TR/2001/REC-SVG-20010904/DTD/svg10.dtd">
<svg xmlns="http://www.w3.org/2000/svg" xmlns:xlink="http://www.w3.org/1999/xlink" width="1000" height="1000" viewBox="-500 -500 1000 1000" version="1.1">
	<!--Unicode Character 'MALE SIGN' (U+2642)-->
	<g class="symbol" id="mars_template">
		<!--<circle cx="0" cy="0" r="20" fill="white"/>-->
		<g id="mars_path" transform="translate(-20, -20)">
			<path transform="scale(0.18, 0.18) translate(0, -185)" d="M204.75 260.2969 L187.4531 260.2969 L187.4531 236.3906 L155.8125 268.0312 Q172.8281 289.4062 172.8281 316.6875 Q172.8281 348.75 149.9688 371.6094 Q127.125 394.4531 95.0625 394.4531 Q63 394.4531 40.1406 371.6094 Q17.2969 348.75 17.2969 316.6875 Q17.2969 284.7656 40.1406 261.9219 Q63 239.0625 95.0625 239.0625 Q122.3438 239.0625 143.7188 255.9375 L175.3594 224.2969 L151.4531 224.2969 L151.4531 207 L204.75 207 L204.75 260.2969 ZM95.0625 377.2969 Q119.9531 377.2969 137.7344 359.5156 Q155.5312 341.7188 155.5312 316.6875 Q155.5312 291.6562 137.8125 273.9375 Q120.0938 256.2188 95.0625 256.2188 Q70.1719 256.2188 52.375 274.0156 Q34.5938 291.7969 34.5938 316.6875 Q34.5938 341.7188 52.375 359.5156 Q70.1719 377.2969 95.0625 377.2969 Z" stroke="none"/>
		</g>
		<!--<circle cx="0" cy="0" r="2" fill="red"/>-->
	</g>
</svg>
