<!DOCTYPE svg PUBLIC "-//W3C//DTD SVG 1.0//EN" "http://www.w3.org/TR/2001/REC-SVG-20010904/DTD/svg10.dtd">
<svg xmlns="http://www.w3.org/2000/svg" xmlns:xlink="http://www.w3.org/1999/xlink" width="1000" height="1000" viewBox="-500 -500 1000 1000" version="1.1">
	<g class="symbol" id="char-uranus_template">
		<!--<circle cx="0" cy="0" r="20" fill="white"/>-->
		<g id="char-uranus_path" transform="translate(0, -40)">
			<path transform="scale(0.18, 0.18) translate(20, -160)" d="M169.0312 319.0781 L131.0625 319.0781 L131.0625 260.0156 L99.7031 260.0156 L99.7031 317.9531 Q111.375 321.0469 118.4688 330.4062 Q125.5781 339.75 125.5781 351.2812 Q125.5781 365.4844 115.375 375.6875 Q105.1875 385.875 90.9844 385.875 Q76.7812 385.875 66.5781 375.6875 Q56.3906 365.4844 56.3906 351.2812 Q56.3906 339.75 63.4844 330.4062 Q70.5938 321.0469 82.4062 317.9531 L82.4062 260.0156 L50.9062 260.0156 L50.9062 319.0781 L12.9375 319.0781 L12.9375 302.625 L33.75 302.625 L33.75 200.9531 L12.9375 200.9531 L12.9375 184.5 L50.9062 184.5 L50.9062 243.5625 L82.4062 243.5625 L82.4062 184.5 L99.7031 184.5 L99.7031 243.5625 L131.0625 243.5625 L131.0625 184.5 L169.0312 184.5 L169.0312 200.9531 L148.3594 200.9531 L148.3594 302.625 L169.0312 302.625 L169.0312 319.0781 ZM90.9844 371.5312 Q99.1406 371.5312 105.1875 365.4844 Q111.2344 359.4375 111.2344 351.2812 Q111.2344 343.125 105.1875 337.1562 Q99.1406 331.1719 90.9844 331.1719 Q82.8281 331.1719 76.8438 337.1562 Q70.875 343.125 70.875 351.2812 Q70.875 359.5781 76.8438 365.5625 Q82.8281 371.5312 90.9844 371.5312 Z" stroke="none"/>
		</g>
		<!--<circle cx="0" cy="0" r="2" fill="red"/>-->
	</g>
</svg>
