<!DOCTYPE svg PUBLIC "-//W3C//DTD SVG 1.0//EN" "http://www.w3.org/TR/2001/REC-SVG-20010904/DTD/svg10.dtd">
<svg xmlns="http://www.w3.org/2000/svg" xmlns:xlink="http://www.w3.org/1999/xlink" width="1000" height="1000" viewBox="-500 -500 1000 1000" version="1.1">
	<g class="symbol" id="char-scorpio_template">
		<g transform="translate(0, -50)">
			<path transform="translate(-1, -32) scale(0.2, 0.2)" d="M307.2656 397.125 L294.6094 384.1875 Q273.2344 406.5469 248.7656 406.5469 Q227.5312 406.5469 213.6719 392.2031 Q199.8281 377.8594 199.8281 352.125 L199.8281 234.9844 Q199.8281 221.2031 190.1875 211.0781 Q180.5625 200.9531 167.0625 200.9531 Q153.7031 200.9531 143.9219 211.0781 Q134.1562 221.2031 134.1562 234.9844 L134.1562 385.875 L116.8594 385.875 L116.8594 234.9844 Q116.8594 221.2031 107.1562 211.0781 Q97.4531 200.9531 84.0938 200.9531 Q70.7344 200.9531 61.0312 211.0781 Q51.3281 221.2031 51.3281 234.9844 L51.3281 385.875 L34.0312 385.875 L34.0312 234.9844 Q34.0312 200.9531 12.0938 200.9531 L12.0938 184.5 Q22.9219 184.5 32.9688 191.1875 Q43.0312 197.8594 46.125 206.7188 Q50.7656 197.0156 61.375 190.7656 Q72 184.5 84.0938 184.5 Q113.3438 184.5 125.5781 210.7969 Q137.8125 184.5 167.0625 184.5 Q187.7344 184.5 202.4219 198.5 Q217.125 212.4844 217.125 234.9844 L217.125 352.125 Q217.125 370.9688 225.4844 380.6094 Q233.8594 390.2344 248.7656 390.2344 Q257.625 390.2344 264.9375 386.7188 Q272.25 383.2031 282.7969 372.375 L269.8594 359.7188 L307.2656 359.7188 L307.2656 397.125 Z" stroke="black"/>
		</g>
	</g>
	<!--<circle cx="0" cy="0" r="2" fill="red"/>-->
</svg>
