<!DOCTYPE svg PUBLIC "-//W3C//DTD SVG 1.0//EN" "http://www.w3.org/TR/2001/REC-SVG-20010904/DTD/svg10.dtd">
<svg xmlns="http://www.w3.org/2000/svg" xmlns:xlink="http://www.w3.org/1999/xlink" width="1000" height="1000" viewBox="-500 -500 1000 1000" version="1.1">
	<g class="symbol" id="libra_template">
		<g transform="translate(-25, -20)">
			<path transform="translate(0, -40) scale(0.2, 0.2)" d="M248.4844 315 L145.4062 315 L145.4062 298.2656 Q161.7188 289.2656 169.5938 277.6719 Q177.4688 266.0625 177.4688 246.2344 Q177.4688 226.125 163.8281 213.6875 Q150.1875 201.2344 129.0938 201.2344 Q107.8594 201.2344 94.2188 213.6875 Q80.5781 226.125 80.5781 246.2344 Q80.5781 266.0625 88.4531 277.6719 Q96.3281 289.2656 112.6406 298.2656 L112.6406 315 L9.5625 315 L9.5625 298.2656 L89.5781 298.2656 Q63.4219 279.9844 63.4219 246.2344 Q63.4219 219.0938 82.2656 201.7969 Q101.1094 184.5 129.0938 184.5 Q156.9375 184.5 175.7812 201.7969 Q194.625 219.0938 194.625 246.2344 Q194.625 279.9844 168.4688 298.2656 L248.4844 298.2656 L248.4844 315 ZM248.4844 385.875 L9.5625 385.875 L9.5625 369.1406 L248.4844 369.1406 L248.4844 385.875 Z" stroke="black"/>
		</g>
	</g>	
</svg>
