<svg xmlns="http://www.w3.org/2000/svg" xmlns:xlink="http://www.w3.org/1999/xlink" width="1000" height="1000" viewBox="-500 -500 1000 1000" version="1.1">
	<g class="symbol" id="retrograde_template">
<!--		<circle cx="0" cy="0" r="45" fill="grey"/>-->
<!--		<circle cx="0" cy="0" r="20" fill="white"/>-->
		<g id="retrograde_path" transform="translate(-20, -20)">
			<path transform="scale(0.1, 0.1) translate(380, 100)" d="M194.9062 385.875 L158.625 385.875 L134.7188 359.1562 Q123.8906 370.8281 123.8906 374.3438 Q123.8906 380.6719 130.5 380.6719 L130.5 385.875 L95.625 385.875 L95.625 380.6719 Q103.2188 380.25 110.5312 373.7812 Q117.8438 367.3125 129.9375 353.6719 L79.1719 296.8594 L59.625 296.8594 L59.625 349.3125 Q59.625 363.5156 60.75 369.3594 Q61.875 375.1875 66.8594 377.9375 Q71.8594 380.6719 83.8125 380.6719 L83.8125 385.875 L5.4844 385.875 L5.4844 380.6719 Q18.8438 380.6719 24.3906 377.9375 Q29.9531 375.1875 31.2188 369.3594 Q32.4844 363.5156 32.4844 349.3125 L32.4844 231.75 Q32.4844 217.5469 31.2188 211.7188 Q29.9531 205.875 24.3906 203.1406 Q18.8438 200.3906 5.4844 200.3906 L5.4844 195.1875 L88.1719 195.1875 Q121.0781 195.1875 137.7344 209.4688 Q154.4062 223.7344 154.4062 244.6875 Q154.4062 262.9688 141.8906 275.7031 Q129.375 288.4219 107.1562 293.2031 L145.9688 335.25 Q158.625 320.625 158.625 316.4062 Q158.625 309.5156 148.6406 309.5156 L148.6406 304.3125 L192.0938 304.3125 L192.0938 309.5156 Q184.2188 309.5156 176.3438 314.375 Q168.4688 319.2188 150.8906 340.3125 L179.0156 370.6875 Q184.7812 377.0156 194.9062 380.6719 L194.9062 385.875 ZM59.625 287.7188 L65.9531 287.7188 Q91.9688 287.7188 107.0156 276.9688 Q122.0625 266.2031 122.0625 245.9531 Q122.0625 228.375 111.2344 216.9844 Q100.4062 205.5938 83.25 205.5938 Q76.7812 205.5938 59.625 208.125 L59.625 287.7188 Z" stroke="none"/>
		</g>
		<!--<circle cx="0" cy="0" r="2" fill="red"/>-->
	</g>
</svg>
